<svg xmlns="http://www.w3.org/2000/svg" xmlns:xlink="http://www.w3.org/1999/xlink" width="1920" height="1080" viewBox="0 0 1920 1080">
  <defs>
    <clipPath id="clip-path">
      <rect width="1564" height="3310" fill="none"/>
    </clipPath>
    <clipPath id="clip-Web_1920_1">
      <rect width="1920" height="1080"/>
    </clipPath>
  </defs>
  <g id="Web_1920_1" data-name="Web 1920 – 1" clip-path="url(#clip-Web_1920_1)">
    <rect width="1920" height="1080" fill="#fff"/>
    <g id="Scroll_Group_1" data-name="Scroll Group 1" transform="translate(178)" clip-path="url(#clip-path)" style="isolation: isolate">
      <g id="Rectangle_1" data-name="Rectangle 1" fill="#fff" stroke="#707070" stroke-width="1">
        <rect width="1564" height="1080" stroke="none"/>
        <rect x="0.5" y="0.5" width="1563" height="1079" fill="none"/>
      </g>
    </g>
    <g id="Subtraction_1" data-name="Subtraction 1" fill="#333">
      <path d="M 1741.500610351563 183.1587982177734 C 1698.217895507813 178.9961090087891 1647.841796875 175.1757965087891 1591.762817382813 171.8038635253906 C 1535.23193359375 168.4042663574219 1472.965209960938 165.4640655517578 1406.692138671875 163.0646667480469 C 1339.248413085938 160.6226654052734 1267.616821289063 158.7406616210938 1193.787353515625 157.470458984375 C 1117.773803710938 156.1626586914063 1039.116333007813 155.4996643066406 960.0003662109375 155.4996643066406 C 880.8839721679688 155.4996643066406 802.2265625 156.1626586914063 726.2131958007813 157.470458984375 C 652.383544921875 158.7406616210938 580.751953125 160.6226654052734 513.308349609375 163.0646667480469 C 447.0355529785156 165.4640655517578 384.7687683105469 168.4042663574219 328.2379760742188 171.8038635253906 C 272.162109375 175.1757965087891 221.7867279052734 178.9954223632813 178.5001678466797 183.15771484375 L 178.5001678466797 0.5000600218772888 L 1741.500610351563 0.5000600218772888 L 1741.500610351563 183.1587982177734 Z" stroke="none"/>
      <path d="M 1741.000610351563 182.6083526611328 L 1741.000610351563 1.000060081481934 L 179.0001678466797 1.000060081481934 L 179.0001678466797 182.6072845458984 C 222.1692810058594 178.465087890625 272.3633422851563 174.6627349853516 328.2079772949219 171.3046569824219 C 384.7427673339844 167.9050598144531 447.0133666992188 164.9644622802734 513.2901611328125 162.5648651123047 C 580.7369384765625 160.1228637695313 652.3717651367188 158.2406616210938 726.20458984375 156.9706573486328 C 802.2207641601563 155.6628570556641 880.8811645507813 154.9996643066406 960.0003662109375 154.9996643066406 C 1039.119384765625 154.9996643066406 1117.779541015625 155.6628570556641 1193.796020507813 156.9706573486328 C 1267.628540039063 158.2406616210938 1339.263305664063 160.1228637695313 1406.710327148438 162.5648651123047 C 1472.987182617188 164.9644622802734 1535.257934570313 167.9050598144531 1591.792724609375 171.3046569824219 C 1647.640625 174.6629333496094 1697.835327148438 178.4655609130859 1741.000610351563 182.6083526611328 M 1742.000610351563 183.7092590332031 L 1741.99951171875 183.7090606689453 C 1698.600219726563 179.5264587402344 1648.043212890625 175.6888580322266 1591.732788085938 172.3028564453125 C 1535.202026367188 168.9034576416016 1472.939208984375 165.9634552001953 1406.674194335938 163.5642547607422 C 1339.23193359375 161.1224670410156 1267.603515625 159.2404632568359 1193.77880859375 157.970458984375 C 1117.763793945313 156.6626586914063 1039.109375 155.9996643066406 960.0003662109375 155.9996643066406 C 880.8909912109375 155.9996643066406 802.236572265625 156.6626586914063 726.2217407226563 157.970458984375 C 652.3967895507813 159.2404632568359 580.7683715820313 161.1224670410156 513.3263549804688 163.5642547607422 C 447.0611572265625 165.9634552001953 384.7985534667969 168.9034576416016 328.2679748535156 172.3028564453125 C 271.962158203125 175.6886596679688 221.4049682617188 179.5258636474609 178.0001678466797 183.7080535888672 L 178.0001678466797 6.003418093314394e-05 L 1742.000610351563 6.003418093314394e-05 L 1742.000610351563 183.7080535888672 L 1742.000610351563 183.7092590332031 Z" stroke="none" fill="#707070"/>
    </g>
    <line id="Line_1" data-name="Line 1" x2="1500" transform="translate(210.5 143.5)" fill="none" stroke="#707070" stroke-width="1"/>
    <rect id="Rectangle_4" data-name="Rectangle 4" width="1500" height="84" transform="translate(211 30)" fill="none"/>
    <g id="Rectangle_5" data-name="Rectangle 5" transform="translate(211 30)" fill="#fff" stroke="#707070" stroke-width="1">
      <rect width="463" height="84" stroke="none"/>
      <rect x="0.5" y="0.5" width="462" height="83" fill="none"/>
    </g>
    <g id="Group_1" data-name="Group 1" transform="translate(-28)">
      <g id="Link_Header" data-name="Link Header" transform="translate(868 51)">
        <rect id="Rectangle_6" data-name="Rectangle 6" width="846" height="46" fill="none"/>
        <text id="HOME" transform="translate(30 32)" fill="#fff" font-size="20" font-family="SegoeUI-Bold, Segoe UI" font-weight="700"><tspan x="-30.137" y="0">HOME</tspan></text>
        <text id="ABOUT" transform="translate(164 32)" fill="#fff" font-size="20" font-family="SegoeUI-Bold, Segoe UI" font-weight="700"><tspan x="-34.116" y="0">ABOUT</tspan></text>
        <text id="CONTACT" transform="translate(315 32)" fill="#fff" font-size="20" font-family="SegoeUI-Bold, Segoe UI" font-weight="700"><tspan x="-45.742" y="0">CONTACT</tspan></text>
        <text id="ASSETS" transform="translate(467 32)" fill="#fff" font-size="20" font-family="SegoeUI-Bold, Segoe UI" font-weight="700"><tspan x="-35.117" y="0">ASSETS</tspan></text>
        <text id="FORUM" transform="translate(609 32)" fill="#fff" font-size="20" font-family="SegoeUI-Bold, Segoe UI" font-weight="700"><tspan x="-36.113" y="0">FORUM</tspan></text>
        <text id="GUIDELINES" transform="translate(772 32)" fill="#fff" font-size="20" font-family="SegoeUI-Bold, Segoe UI" font-weight="700"><tspan x="-57.314" y="0">GUIDELINES</tspan></text>
      </g>
    </g>
  </g>
</svg>
