<svg xmlns="http://www.w3.org/2000/svg" width="1685.29" height="4054.99" viewBox="0 0 1685.29 4054.99">
  <defs>
    <style>
      .cls-1 {
        fill: #ffda00;
      }

      .cls-2 {
        fill: #ff1200;
      }

      .cls-3 {
        fill: #ff6d00;
      }

      .cls-4, .cls-5 {
        fill: #e23e0c;
      }

      .cls-4, .cls-9 {
        stroke: #000;
        stroke-miterlimit: 10;
      }

      .cls-4 {
        stroke-width: 100px;
      }

      .cls-6 {
        fill: #333;
      }

      .cls-7 {
        fill: #e47909;
      }

      .cls-8 {
        fill: #c7cbce;
      }

      .cls-9 {
        fill: #499dba;
        stroke-width: 5px;
      }

      .cls-10 {
        opacity: 0.4;
      }
    </style>
  </defs>
  <g id="Layer_6" data-name="Layer 6">
    <g>
      <path class="cls-1" d="M2042.26,2721.24c45.3-53.88,159.85-189.27,284.21-329.61,44.54-50.26,84.15-94.16,119.3-132.47-15.6,49.59-33.82,105.85-55.08,169.55-59.35,177.87-119.33,344.76-143.34,410.94l-334,341.65Z" transform="translate(-1309.62 -8.01)"/>
      <path class="cls-2" d="M2657.35,1861.38a32,32,0,0,0-13.39,3c-134.36,61.69-737.42,785.3-737.42,785.3l-271.63,969.55c-5.92,21.12,2.22,34.36,15.12,34.36,6.89,0,15.14-3.78,23.33-12.16l703.84-720s325.13-884.08,311.38-1031.28a31.39,31.39,0,0,0-31.23-28.74Z" transform="translate(-1309.62 -8.01)"/>
    </g>
    <g>
      <path class="cls-1" d="M2037.14,3057.21c12.29-69.32,43.8-243.84,81.33-427.56,13.45-65.79,25.79-123.62,37.08-174.37,11.29,50.77,23.63,108.56,37.08,174.37,37.53,183.72,69,358.24,81.33,427.56l-118.41,462.88Z" transform="translate(-1309.62 -8.01)"/>
      <path class="cls-2" d="M2155.55,2000.82a31.41,31.41,0,0,0-25.76,13.46c-85.52,120.6-246,1048.8-246,1048.8l249.54,975.47c4.17,16.3,13.19,24.45,22.2,24.45s18-8.15,22.2-24.45l249.54-975.47s-160.46-928.2-246-1048.8a31.39,31.39,0,0,0-25.76-13.46Z" transform="translate(-1309.62 -8.01)"/>
    </g>
    <g>
      <path class="cls-1" d="M2065.66,2839.59c-24-66.18-84-233.07-143.35-410.94-21.25-63.7-39.47-120-55.08-169.55,35.16,38.31,74.76,82.22,119.3,132.47,124.37,140.34,238.91,275.73,284.22,329.62l128.89,460.06Z" transform="translate(-1309.62 -8.01)"/>
      <path class="cls-2" d="M1655.65,1861.33a31.38,31.38,0,0,0-31.23,28.73c-13.75,147.21,311.38,1031.28,311.38,1031.28l703.85,720c8.19,8.38,16.44,12.16,23.33,12.16,12.89,0,21-13.24,15.12-34.36L2406.47,2649.6S1803.4,1926,1669.05,1864.3a32,32,0,0,0-13.4-3Z" transform="translate(-1309.62 -8.01)"/>
    </g>
  </g>
  <g id="Layer_4" data-name="Layer 4">
    <g>
      <path class="cls-1" d="M2082.52,2749.53c39.11-46.47,129.29-152.9,227.33-263.63q9.78-11,19.19-21.61-4.44,13.42-9.12,27.42C2273,2632,2226,2763.29,2205.27,2820.4l-199.89,204.48Z" transform="translate(-1309.62 -8.01)"/>
      <path class="cls-3" d="M2566.29,2027.54a26.29,26.29,0,0,0-11.05,2.45c-110.86,50.9-608.43,647.93-608.43,647.93l-224.12,800c-4.88,17.42,1.84,28.35,12.48,28.35,5.68,0,12.49-3.12,19.25-10l580.72-594.07s268.26-729.43,256.92-850.88a25.9,25.9,0,0,0-25.77-23.71Z" transform="translate(-1309.62 -8.01)"/>
    </g>
    <g>
      <path class="cls-1" d="M2081.39,3084c10.64-59.81,35.52-197.07,65.06-342q3-14.46,5.81-28.3,2.86,13.83,5.81,28.3c29.54,144.91,54.43,282.17,65.06,342l-70.87,277Z" transform="translate(-1309.62 -8.01)"/>
      <path class="cls-3" d="M2152.26,2213.36a25.9,25.9,0,0,0-21.25,11.1c-70.56,99.51-203,865.34-203,865.34L2134,3894.64c3.44,13.45,10.87,20.17,18.31,20.17s14.88-6.72,18.32-20.17l205.89-804.84s-132.4-765.83-202.95-865.34a25.91,25.91,0,0,0-21.26-11.1Z" transform="translate(-1309.62 -8.01)"/>
    </g>
    <g>
      <path class="cls-1" d="M2100.83,2820.35c-20.7-57.11-67.78-188.42-114.65-328.69q-4.68-14-9.12-27.41,9.39,10.55,19.18,21.6c98,110.73,188.22,217.16,227.33,263.63l77.15,275.36Z" transform="translate(-1309.62 -8.01)"/>
      <path class="cls-3" d="M1739.81,2027.49A25.89,25.89,0,0,0,1714,2051.2C1702.69,2172.65,1971,2902.08,1971,2902.08l580.73,594.07c6.76,6.91,13.56,10,19.25,10,10.64,0,17.35-10.93,12.47-28.35l-224.11-800s-497.57-597-608.43-647.93a26.48,26.48,0,0,0-11-2.45Z" transform="translate(-1309.62 -8.01)"/>
    </g>
  </g>
  <g id="Layer_3" data-name="Layer 3">
    <path class="cls-4" d="M2944.91,2832.41a791.21,791.21,0,0,1-47.83,271.77c-63-172.66-184.34-317.25-340.14-409.93-21.19,59.19-44.07,113.74-68.41,163.07H2461.6q-17.43,38.38-35.95,72.47H2313.9l-143.33,560.26c-6.87,26.89-29.74,26.89-36.62,0l-143.32-560.26H1878.87q-4.75-8.76-9.46-17.82-2.13-4.14-4.27-8.33-3.71-7.3-7.36-14.78-1.15-2.36-2.3-4.73t-2.29-4.77q-5.18-10.83-10.27-22H1816c-1.25-2.54-2.49-5.08-3.73-7.64-.63-1.28-1.25-2.56-1.86-3.85s-1.24-2.58-1.86-3.87-1.23-2.59-1.85-3.89c-1.19-2.51-2.38-5.05-3.57-7.59q-1.44-3.11-2.87-6.23-2.88-6.26-5.73-12.61Q1776,2770.36,1758.9,2725c-2.16-5.72-4.32-11.49-6.44-17.31q-2.45-6.66-4.86-13.41h0c-155.8,92.68-277.12,237.27-340.14,409.93a791.21,791.21,0,0,1-47.83-271.77c0-239.24,106-453.71,273.56-599.06h0c-.55-3.37-1.1-6.75-1.63-10.13-30.71-192.64-47.75-405.61-47.75-629.51,0-380.65,110-729.59,233.18-1001.08,112.37-247.67,235.79-430.89,296.76-515a49.87,49.87,0,0,1,4.81-5.65,47,47,0,0,1,4-3.62q.83-.66,1.68-1.29l.87-.62a0,0,0,0,0,0,0c.57-.39,1.14-.77,1.72-1.13l.79-.49.95-.56c.32-.19.64-.36,1-.53l.79-.42c.36-.18.72-.38,1.08-.55l.33-.16c.92-.43,1.83-.84,2.77-1.21l.29-.12,1.4-.52.45-.16,1.41-.47.31-.08a46.7,46.7,0,0,1,4.9-1.21l.13,0c.52-.1,1-.18,1.54-.25l.38-.06q.76-.12,1.53-.21l.23,0c1.65-.17,3.29-.27,4.94-.28h.22a47.72,47.72,0,0,1,21.12,4.91,47.23,47.23,0,0,1,17.38,14.74c61,84.07,184.39,267.29,296.77,515,123.2,271.49,233.18,620.43,233.18,1001.08,0,223.9-17,436.87-47.75,629.51-.53,3.38-1.08,6.76-1.63,10.13C2838.92,2378.68,2944.91,2593.16,2944.91,2832.41Z" transform="translate(-1309.62 -8.01)"/>
  </g>
  <g id="Layer_2" data-name="Layer 2">
    <g id="Layer_5" data-name="Layer 5">
      <path class="cls-5" d="M2376.47,2685.2l-205.89,804.85c-6.88,26.89-29.75,26.89-36.63,0L1928.06,2685.2s132.39-765.83,203-865.34a25.9,25.9,0,0,1,42.51,0C2244.07,1919.37,2376.47,2685.2,2376.47,2685.2Z" transform="translate(-1309.62 -8.01)"/>
      <path class="cls-6" d="M2497.31,2771.26c-22.28,58.66-46.24,111.79-71.65,158.53H1878.87c-25.41-46.74-49.37-99.87-71.66-158.53Z" transform="translate(-1309.62 -8.01)"/>
      <path class="cls-7" d="M2944.91,2832.41a791.11,791.11,0,0,1-47.83,271.76c-110.93-303.92-402.53-520.88-744.82-520.88s-633.89,217-744.81,520.88a790.87,790.87,0,0,1-47.83-271.76c0-437.77,354.88-792.65,792.64-792.65S2944.91,2394.64,2944.91,2832.41Z" transform="translate(-1309.62 -8.01)"/>
      <path class="cls-8" d="M2720.7,1593.71c0,223.89-17,436.86-47.74,629.49-40.35,253.61-104.45,472.06-184.43,634.12H1816c-80-162.06-144.08-380.51-184.44-634.12-30.71-192.63-47.74-405.6-47.74-629.49,0-380.65,110-729.6,233.18-1001.09h670.53C2610.73,864.11,2720.7,1213.06,2720.7,1593.71Z" transform="translate(-1309.62 -8.01)"/>
      <path class="cls-7" d="M2487.53,592.62H1817C1929.37,345,2052.8,161.74,2113.76,77.67a47.51,47.51,0,0,1,77,0C2251.73,161.74,2375.15,345,2487.53,592.62Z" transform="translate(-1309.62 -8.01)"/>
      <ellipse class="cls-7" cx="842.64" cy="2645.49" rx="83.79" ry="452.94"/>
      <circle class="cls-9" cx="842.64" cy="1270.81" r="269.5"/>
    </g>
    <path class="cls-10" d="M2152.26,58V592.62H1817C1929.37,345,2052.8,161.74,2113.76,77.67A47.32,47.32,0,0,1,2152.26,58Z" transform="translate(-1309.62 -8.01)"/>
    <path class="cls-10" d="M2152.26,1009.32v539c-148.83,0-269.5-120.66-269.5-269.5S2003.43,1009.32,2152.26,1009.32Z" transform="translate(-1309.62 -8.01)"/>
    <path class="cls-10" d="M1882.76,1278.82c0,148.84,120.67,269.5,269.5,269.5v652.24c-42.17,0-77,168.13-82.93,387-.54,21.51-.86,43.52-.86,65.9,0,40.72,1,80.21,2.85,117.76,1.5,30,3.53,58.84,6.07,86.06H1816c-24.37-49.32-47.24-103.86-68.39-163.06v0c-47.47-132.62-86.43-288.48-114.42-460.82q-.81-5.1-1.63-10.2c-30.71-192.63-47.74-405.6-47.74-629.49,0-380.65,110-729.6,233.18-1001.09h335.26v416.7C2003.43,1009.32,1882.76,1130,1882.76,1278.82Z" transform="translate(-1309.62 -8.01)"/>
    <path class="cls-10" d="M2152.26,2200.56v905.88c-27,0-51.09-69.21-66.35-176.65-3.26-22.55-6.12-46.83-8.52-72.47-2.54-27.22-4.57-56-6.07-86.06-1.85-37.55-2.85-77-2.85-117.76,0-22.38.32-44.39.86-65.9C2075.26,2368.69,2110.09,2200.56,2152.26,2200.56Z" transform="translate(-1309.62 -8.01)"/>
    <path class="cls-10" d="M2085.91,2929.79h-207q-18.48-34-36-72.47h234.49C2079.79,2883,2082.65,2907.24,2085.91,2929.79Z" transform="translate(-1309.62 -8.01)"/>
    <path class="cls-10" d="M2152.26,3106.44v403.75c-7.43,0-14.85-6.7-18.3-20.16l-143.31-560.24h95.26C2101.17,3037.23,2125.22,3106.44,2152.26,3106.44Z" transform="translate(-1309.62 -8.01)"/>
  </g>
</svg>
