<svg xmlns="http://www.w3.org/2000/svg" viewBox="0 0 1626.06 3541"><defs><style>.cls-1{fill:#e23e0c;}.cls-2{fill:#333;}.cls-3{fill:#e47909;}.cls-4{fill:#c7cbce;}.cls-5{fill:#499dba;stroke:#000;stroke-miterlimit:10;stroke-width:5px;}.cls-6{opacity:0.4;}</style></defs><g id="Layer_2" data-name="Layer 2"><g id="Layer_2-2" data-name="Layer 2"><g id="Layer_5" data-name="Layer 5"><path class="cls-1" d="M1043,2694.77,831.82,3520.31c-7.06,27.59-30.52,27.59-37.58,0L583.06,2694.77s135.8-785.53,208.17-887.59a26.56,26.56,0,0,1,43.61,0C907.2,1909.24,1043,2694.77,1043,2694.77Z"/><path class="cls-2" d="M1167,2783c-22.86,60.17-47.44,114.66-73.5,162.61H532.61c-26.07-48-50.64-102.44-73.5-162.61Z"/><path class="cls-3" d="M1626.06,2845.76A811.43,811.43,0,0,1,1577,3124.52c-113.78-311.74-412.88-534.28-764-534.28s-650.19,222.54-764,534.28A811.43,811.43,0,0,1,0,2845.76c0-449,364-813,813-813S1626.06,2396.74,1626.06,2845.76Z"/><path class="cls-4" d="M1396.09,1575.2c0,229.65-17.47,448.1-49,645.69C1305.73,2481,1240,2705.08,1157.94,2871.31H468.12c-82.05-166.23-147.79-390.3-189.18-650.42-31.5-197.59-49-416-49-645.69,0-390.44,112.8-748.36,239.17-1026.83h687.78C1283.29,826.84,1396.09,1184.76,1396.09,1575.2Z"/><path class="cls-3" d="M1156.92,548.37H469.14c115.27-254,241.87-442,304.4-528.2a48.75,48.75,0,0,1,79,0C915.06,106.4,1041.66,294.33,1156.92,548.37Z"/><ellipse class="cls-3" cx="813.03" cy="2662.25" rx="85.95" ry="464.59"/><circle class="cls-5" cx="813.03" cy="1252.22" r="276.43"/></g><path class="cls-6" d="M813,0V548.37H469.14c115.27-254,241.87-442,304.4-528.2A48.56,48.56,0,0,1,813,0Z"/><path class="cls-6" d="M813,975.79v552.86c-152.66,0-276.43-123.77-276.43-276.43S660.37,975.79,813,975.79Z"/><path class="cls-6" d="M536.6,1252.22c0,152.66,123.77,276.43,276.43,276.43v669c-43.25,0-79,172.46-85.06,397-.56,22.07-.89,44.65-.89,67.6,0,41.77,1,82.28,2.93,120.79,1.53,30.8,3.62,60.35,6.22,88.27H468.12c-25-50.59-48.46-106.53-70.15-167.25v0c-48.69-136-88.65-295.9-117.36-472.68q-.84-5.22-1.67-10.45c-31.5-197.59-49-416-49-645.69,0-390.44,112.8-748.36,239.17-1026.83H813V975.79C660.37,975.79,536.6,1099.56,536.6,1252.22Z"/><path class="cls-6" d="M813,2197.66v929.18c-27.73,0-52.4-71-68.06-181.19-3.35-23.14-6.27-48-8.74-74.34-2.6-27.92-4.69-57.47-6.22-88.27-1.91-38.51-2.93-79-2.93-120.79,0-22.95.33-45.53.89-67.6C734.05,2370.12,769.78,2197.66,813,2197.66Z"/><path class="cls-6" d="M745,2945.65H532.61q-19-34.92-36.89-74.34H736.23C738.7,2897.61,741.62,2922.51,745,2945.65Z"/><path class="cls-6" d="M813,3126.84V3541c-7.62,0-15.24-6.87-18.77-20.67l-147-574.65H745C760.63,3055.85,785.3,3126.84,813,3126.84Z"/></g></g></svg>